<svg width="768" height="588" viewBox="0 0 768 588" fill="none" xmlns="http://www.w3.org/2000/svg">
<path d="M68 429.5C68 429.5 105.5 454.5 151.5 454.5C197.5 454.5 236 429.5 236 429.5C236 429.5 278.5 403 316.5 403C354.5 403 372 419.5 385.5 427C399 434.5 416.5 456 476 452.5C535.5 449 576 406 617.5 406C659 406 675.5 423.5 700 429" stroke="black" stroke-width="2" stroke-linecap="square" stroke-linejoin="round"/>
<path d="M202.2 372V162H216.9L301.2 286.2L385.5 162H400.2V372H384.6V189.6L301.5 310.5H300.3L217.2 189.6V372H202.2Z" fill="black"/>
<path d="M415.3 291.6C355 291.6 310.9 243.9 310.9 183.6V183C310.9 123.6 355.3 74.4 415.9 74.4C453.1 74.4 475.9 87.9 497.5 108L486.4 119.4C468.1 101.7 447.1 88.5 415.6 88.5C365.2 88.5 327.1 129.6 327.1 182.4V183C327.1 235.8 365.8 277.5 415.9 277.5C446.2 277.5 466.9 266.1 488.2 244.8L498.7 255C476.2 276.6 452.5 291.6 415.3 291.6Z" fill="black"/>
<path d="M500.3 360C466.7 360 440.9 348.9 415.7 326.4L425.9 314.7C449 336.3 470.3 345.9 501.2 345.9C532.7 345.9 554.3 328.2 554.3 304.2V303.6C554.3 281.4 542.6 268.5 494.9 258.9C444.2 248.4 424.1 231.9 424.1 199.8V199.2C424.1 168 452.6 144 491.6 144C521.9 144 542.3 152.4 563.6 169.5L553.7 181.8C533.6 164.7 514.1 158.1 491 158.1C459.8 158.1 439.7 176.1 439.7 197.7V198.3C439.7 220.8 451.1 233.7 500.9 244.2C549.8 254.1 569.9 271.2 569.9 302.1V302.7C569.9 336.6 540.8 360 500.3 360Z" fill="black"/>
<path d="M68 429.5C68 429.5 105 457.5 151 457.5C197 457.5 236 434 236 434C236 434 277.5 408.5 315.5 408.5C353.5 408.5 370.5 423.5 384 431C397.5 438.5 418 460 477.5 456.5C537 453 576 409.5 617.5 409.5C659 409.5 675.5 423.5 700 429M265.5 491C254 498 238.5 508 212.5 508C186.5 508 156.5 486 156.5 486C156.5 486 186.5 510.5 212.5 510.5C238.5 510.5 254 500.5 265.5 493.5L265.852 493.286C277.573 486.15 305.741 469 329.5 469C353.5 469 370.5 479.944 380.5 485.5C390.5 491.056 418 510.5 452.5 507C487 503.5 520 471.5 551 471.5C582 471.5 601 482.5 614.5 491C601 482.5 582 469 551 469C520 469 487 501 452.5 504.5C418 508 390.5 488.556 380.5 483C370.5 477.444 353.5 466.5 329.5 466.5M265.5 491C277 484 305.5 466.5 329.5 466.5M265.5 491L265.852 490.786C277.573 483.65 305.741 466.5 329.5 466.5" stroke="black" stroke-width="2" stroke-linecap="square" stroke-linejoin="round"/>
<path d="M5.376 573V528.2H16L27.776 547.144L39.552 528.2H50.176V573H40.384V543.752L27.776 562.888H27.52L15.04 543.944V573H5.376ZM76.7465 573.768C66.1865 573.768 58.2505 565.96 58.2505 556.04V555.912C58.2505 546.056 66.1865 538.056 76.8745 538.056C87.4345 538.056 95.3705 545.864 95.3705 555.784V555.912C95.3705 565.768 87.4345 573.768 76.7465 573.768ZM76.8745 565.384C82.4425 565.384 85.7705 561.16 85.7705 556.04V555.912C85.7705 550.856 82.1225 546.44 76.7465 546.44C71.1785 546.44 67.8505 550.664 67.8505 555.784V555.912C67.8505 560.968 71.4985 565.384 76.8745 565.384ZM116.495 573.64C108.495 573.64 100.879 567.368 100.879 555.912V555.784C100.879 544.328 108.367 538.056 116.495 538.056C121.679 538.056 124.879 540.424 127.183 543.176V526.28H136.911V573H127.183V568.072C124.815 571.336 121.615 573.64 116.495 573.64ZM118.991 565.384C123.535 565.384 127.311 561.608 127.311 555.912V555.784C127.311 550.088 123.535 546.312 118.991 546.312C114.447 546.312 110.607 550.024 110.607 555.784V555.912C110.607 561.608 114.447 565.384 118.991 565.384ZM161.858 573.768C151.554 573.768 143.938 566.536 143.938 556.04V555.912C143.938 546.12 150.914 538.056 160.898 538.056C172.354 538.056 177.602 546.952 177.602 556.68C177.602 557.448 177.538 558.28 177.474 559.24H153.602C154.562 563.656 157.634 565.96 161.986 565.96C165.25 565.96 167.554 564.936 170.306 562.44L175.874 567.368C172.61 571.4 168.066 573.768 161.858 573.768ZM153.474 553.16H168.13C167.554 548.808 164.994 545.864 160.898 545.864C156.802 545.864 154.242 548.744 153.474 553.16ZM184.852 573V538.696H194.58V545.608C196.564 540.936 199.7 537.8 205.524 538.056V548.232H205.012C198.548 548.232 194.58 552.072 194.58 560.328V573H184.852ZM211.602 573V538.696H221.33V543.56C223.57 540.68 226.514 538.056 231.378 538.056C238.802 538.056 243.026 542.856 243.026 550.792V573H233.298V553.864C233.298 549.256 231.186 546.888 227.41 546.888C223.634 546.888 221.33 549.256 221.33 553.864V573H211.602ZM292.681 573.768C279.497 573.768 269.705 563.592 269.705 550.728V550.6C269.705 537.864 279.305 527.432 293.065 527.432C301.449 527.432 306.633 530.248 310.729 534.344L304.457 541.576C300.937 538.44 297.545 536.52 293.001 536.52C285.449 536.52 280.009 542.792 280.009 550.472V550.6C280.009 558.28 285.321 564.68 293.001 564.68C298.121 564.68 301.257 562.696 304.777 559.432L311.049 565.768C306.441 570.696 301.385 573.768 292.681 573.768ZM318.363 573V526.28H328.091V573H318.363ZM337.419 534.92V526.28H347.659V534.92H337.419ZM337.675 573V538.696H347.403V573H337.675ZM356.54 573V538.696H366.268V543.56C368.508 540.68 371.452 538.056 376.38 538.056C380.924 538.056 384.252 539.976 386.044 543.496C389.052 539.912 392.636 538.056 397.308 538.056C404.54 538.056 408.892 542.408 408.892 550.664V573H399.164V553.864C399.164 549.256 397.116 546.888 393.468 546.888C389.819 546.888 387.58 549.256 387.58 553.864V573H377.852V553.864C377.852 549.256 375.804 546.888 372.156 546.888C368.508 546.888 366.268 549.256 366.268 553.864V573H356.54ZM427.08 573.64C420.616 573.64 415.304 569.992 415.304 563.144V563.016C415.304 555.592 421 552.072 429.128 552.072C432.648 552.072 435.016 552.648 437.512 553.48V552.904C437.512 548.808 435.016 546.632 430.152 546.632C426.376 546.632 423.816 547.272 420.68 548.488L418.248 541.064C422.024 539.464 425.736 538.312 431.56 538.312C436.936 538.312 440.648 539.656 443.144 542.152C445.704 544.712 446.856 548.488 446.856 553.096V573H437.448V569.288C435.08 571.912 431.88 573.64 427.08 573.64ZM430.024 566.92C434.632 566.92 437.64 564.488 437.64 560.904V559.176C435.912 558.408 433.8 557.896 431.432 557.896C427.272 557.896 424.712 559.56 424.712 562.632V562.76C424.712 565.384 426.888 566.92 430.024 566.92ZM466.499 573.576C460.611 573.576 456.515 571.208 456.515 563.272V547.016H452.419V538.696H456.515V529.928H466.243V538.696H474.307V547.016H466.243V561.672C466.243 563.912 467.267 565 469.378 565C471.107 565 472.707 564.616 474.179 563.784V571.592C472.131 572.808 469.763 573.576 466.499 573.576ZM517.625 573.64C510.777 573.64 503.993 571.336 498.617 566.472L504.441 559.496C508.537 562.824 512.697 564.936 517.817 564.936C521.913 564.936 524.281 563.336 524.281 560.712V560.584C524.281 558.088 522.745 556.744 515.257 554.888C506.169 552.648 500.409 550.024 500.409 541.192V541.064C500.409 532.936 506.873 527.56 516.089 527.56C522.681 527.56 528.121 529.608 532.729 533.256L527.609 540.68C523.577 537.928 519.801 536.264 515.961 536.264C512.121 536.264 510.201 537.928 510.201 540.168V540.296C510.201 543.304 512.121 544.136 519.865 546.184C528.953 548.616 534.073 551.816 534.073 559.624V559.752C534.073 568.648 527.289 573.64 517.625 573.64ZM558.434 573.768C547.874 573.768 539.938 565.96 539.938 556.04V555.912C539.938 546.056 547.874 538.056 558.562 538.056C569.122 538.056 577.058 545.864 577.058 555.784V555.912C577.058 565.768 569.122 573.768 558.434 573.768ZM558.562 565.384C564.13 565.384 567.458 561.16 567.458 556.04V555.912C567.458 550.856 563.81 546.44 558.434 546.44C552.866 546.44 549.538 550.664 549.538 555.784V555.912C549.538 560.968 553.186 565.384 558.562 565.384ZM584.55 573V526.28H594.278V573H584.55ZM614.807 573.64C607.383 573.64 603.159 568.84 603.159 560.904V538.696H612.887V557.832C612.887 562.44 614.999 564.808 618.775 564.808C622.551 564.808 624.855 562.44 624.855 557.832V538.696H634.583V573H624.855V568.136C622.615 571.016 619.671 573.64 614.807 573.64ZM654.874 573.576C648.986 573.576 644.89 571.208 644.89 563.272V547.016H640.794V538.696H644.89V529.928H654.618V538.696H662.682V547.016H654.618V561.672C654.618 563.912 655.642 565 657.753 565C659.482 565 661.082 564.616 662.554 563.784V571.592C660.506 572.808 658.138 573.576 654.874 573.576ZM670.044 534.92V526.28H680.284V534.92H670.044ZM670.3 573V538.696H680.028V573H670.3ZM705.997 573.768C695.437 573.768 687.501 565.96 687.501 556.04V555.912C687.501 546.056 695.437 538.056 706.125 538.056C716.685 538.056 724.621 545.864 724.621 555.784V555.912C724.621 565.768 716.685 573.768 705.997 573.768ZM706.125 565.384C711.693 565.384 715.021 561.16 715.021 556.04V555.912C715.021 550.856 711.373 546.44 705.997 546.44C700.429 546.44 697.101 550.664 697.101 555.784V555.912C697.101 560.968 700.749 565.384 706.125 565.384ZM731.665 573V538.696H741.393V543.56C743.633 540.68 746.577 538.056 751.441 538.056C758.865 538.056 763.089 542.856 763.089 550.792V573H753.361V553.864C753.361 549.256 751.249 546.888 747.473 546.888C743.697 546.888 741.393 549.256 741.393 553.864V573H731.665Z" fill="black"/>
</svg>
