<svg width="926" height="632" viewBox="0 0 926 632" fill="none" xmlns="http://www.w3.org/2000/svg">
<path d="M130 429.5C130 429.5 167.5 454.5 213.5 454.5C259.5 454.5 298 429.5 298 429.5C298 429.5 340.5 403 378.5 403C416.5 403 434 419.5 447.5 427C461 434.5 478.5 456 538 452.5C597.5 449 638 406 679.5 406C721 406 737.5 423.5 762 429" stroke="black" stroke-width="2" stroke-linecap="square" stroke-linejoin="round"/>
<path d="M264.2 372V162H278.9L363.2 286.2L447.5 162H462.2V372H446.6V189.6L363.5 310.5H362.3L279.2 189.6V372H264.2Z" fill="black"/>
<path d="M477.3 291.6C417 291.6 372.9 243.9 372.9 183.6V183C372.9 123.6 417.3 74.4 477.9 74.4C515.1 74.4 537.9 87.9 559.5 108L548.4 119.4C530.1 101.7 509.1 88.5 477.6 88.5C427.2 88.5 389.1 129.6 389.1 182.4V183C389.1 235.8 427.8 277.5 477.9 277.5C508.2 277.5 528.9 266.1 550.2 244.8L560.7 255C538.2 276.6 514.5 291.6 477.3 291.6Z" fill="black"/>
<path d="M562.3 360C528.7 360 502.9 348.9 477.7 326.4L487.9 314.7C511 336.3 532.3 345.9 563.2 345.9C594.7 345.9 616.3 328.2 616.3 304.2V303.6C616.3 281.4 604.6 268.5 556.9 258.9C506.2 248.4 486.1 231.9 486.1 199.8V199.2C486.1 168 514.6 144 553.6 144C583.9 144 604.3 152.4 625.6 169.5L615.7 181.8C595.6 164.7 576.1 158.1 553 158.1C521.8 158.1 501.7 176.1 501.7 197.7V198.3C501.7 220.8 513.1 233.7 562.9 244.2C611.8 254.1 631.9 271.2 631.9 302.1V302.7C631.9 336.6 602.8 360 562.3 360Z" fill="black"/>
<path d="M130 429.5C130 429.5 167 457.5 213 457.5C259 457.5 298 434 298 434C298 434 339.5 408.5 377.5 408.5C415.5 408.5 432.5 423.5 446 431C459.5 438.5 480 460 539.5 456.5C599 453 638 409.5 679.5 409.5C721 409.5 737.5 423.5 762 429M327.5 491C316 498 300.5 508 274.5 508C248.5 508 218.5 486 218.5 486C218.5 486 248.5 510.5 274.5 510.5C300.5 510.5 316 500.5 327.5 493.5L327.852 493.286C339.573 486.15 367.741 469 391.5 469C415.5 469 432.5 479.944 442.5 485.5C452.5 491.056 480 510.5 514.5 507C549 503.5 582 471.5 613 471.5C644 471.5 663 482.5 676.5 491C663 482.5 644 469 613 469C582 469 549 501 514.5 504.5C480 508 452.5 488.556 442.5 483C432.5 477.444 415.5 466.5 391.5 466.5M327.5 491C339 484 367.5 466.5 391.5 466.5M327.5 491L327.852 490.786C339.573 483.65 367.741 466.5 391.5 466.5" stroke="black" stroke-width="2" stroke-linecap="square" stroke-linejoin="round"/>
<path d="M8.32 613V557H12.24L34.72 590.12L57.2 557H61.12V613H56.96V564.36L34.8 596.6H34.48L12.32 564.36V613H8.32ZM94.9731 613.96C82.8931 613.96 74.0931 604.2 74.0931 592.76V592.6C74.0931 581.16 82.9731 571.24 95.1331 571.24C107.213 571.24 116.013 581 116.013 592.44V592.6C116.013 604.04 107.133 613.96 94.9731 613.96ZM95.1331 610.28C104.813 610.28 111.773 602.36 111.773 592.76V592.6C111.773 582.68 104.413 574.92 94.9731 574.92C85.2931 574.92 78.3331 582.84 78.3331 592.44V592.6C78.3331 602.52 85.6931 610.28 95.1331 610.28ZM145.265 613.96C135.425 613.96 125.425 606.04 125.425 592.76V592.6C125.425 579.4 135.425 571.24 145.265 571.24C153.425 571.24 158.625 575.88 162.065 581V554.6H165.985V613H162.065V603.88C158.465 609.24 153.425 613.96 145.265 613.96ZM145.665 610.2C154.225 610.2 162.305 603.08 162.305 592.68V592.52C162.305 582.04 154.225 575 145.665 575C136.705 575 129.665 581.56 129.665 592.44V592.6C129.665 603.32 137.025 610.2 145.665 610.2ZM198.078 613.96C187.358 613.96 178.078 605.48 178.078 592.68V592.52C178.078 580.76 186.398 571.24 197.438 571.24C208.878 571.24 216.158 580.52 216.158 592.6C216.158 593.32 216.158 593.56 216.078 594.2H182.238C182.878 604.36 190.318 610.28 198.238 610.28C204.638 610.28 208.798 607.48 212.238 603.88L214.958 606.28C210.798 610.76 205.838 613.96 198.078 613.96ZM182.238 590.68H211.918C211.278 582.44 206.638 574.84 197.278 574.84C189.198 574.84 182.878 581.64 182.238 590.68ZM227.596 613V572.2H231.516V583.8C234.796 576.44 241.436 571.32 249.596 571.56V575.88H249.196C239.836 575.88 231.516 583.08 231.516 596.28V613H227.596ZM259.628 613V572.2H263.548V579.8C266.348 575 270.828 571.24 278.268 571.24C288.588 571.24 294.588 578.2 294.588 588.04V613H290.668V588.76C290.668 580.36 286.028 574.84 277.708 574.84C269.708 574.84 263.548 580.84 263.548 589.4V613H259.628ZM358.914 613.96C342.834 613.96 331.074 601.24 331.074 585.16V585C331.074 569.16 342.914 556.04 359.074 556.04C368.994 556.04 375.074 559.64 380.834 565L377.874 568.04C372.994 563.32 367.394 559.8 358.994 559.8C345.554 559.8 335.394 570.76 335.394 584.84V585C335.394 599.08 345.714 610.2 359.074 610.2C367.154 610.2 372.674 607.16 378.354 601.48L381.154 604.2C375.154 609.96 368.834 613.96 358.914 613.96ZM392.688 613V554.6H396.608V613H392.688ZM412.129 561.56V556.2H417.009V561.56H412.129ZM412.609 613V572.2H416.529V613H412.609ZM431.971 613V572.2H435.891V579.48C438.451 575.24 442.211 571.24 449.491 571.24C456.691 571.24 460.931 575.32 463.251 580.04C465.891 575.48 470.371 571.24 477.971 571.24C487.651 571.24 493.651 578.04 493.651 588.28V613H489.731V588.76C489.731 579.88 485.251 574.84 477.651 574.84C470.771 574.84 464.771 580.04 464.771 589.24V613H460.851V588.52C460.851 579.96 456.291 574.84 448.931 574.84C441.571 574.84 435.891 581.24 435.891 589.48V613H431.971ZM520.153 613.96C512.553 613.96 504.393 609.72 504.393 601.16V601C504.393 592.44 511.673 587.72 522.233 587.72C527.993 587.72 531.833 588.44 535.753 589.48V587.72C535.753 579.4 530.713 575.24 522.313 575.24C517.273 575.24 513.273 576.6 509.513 578.52L508.073 575.08C512.553 572.92 516.873 571.56 522.553 571.56C528.153 571.56 532.473 573.08 535.433 576.04C538.233 578.84 539.593 582.68 539.593 587.56V613H535.753V606.2C532.953 610.04 527.913 613.96 520.153 613.96ZM520.393 610.28C528.713 610.28 535.833 605.16 535.833 597.72V593.08C532.393 592.2 527.833 591.24 521.993 591.24C513.353 591.24 508.553 595 508.553 600.76V600.92C508.553 606.84 514.153 610.28 520.393 610.28ZM566.899 613.72C560.499 613.72 555.459 610.28 555.459 602.52V575.8H549.539V572.2H555.459V559.16H559.379V572.2H573.699V575.8H559.379V602.12C559.379 607.96 562.739 610.04 567.539 610.04C569.539 610.04 571.219 609.64 573.539 608.6V612.28C571.379 613.24 569.459 613.72 566.899 613.72ZM629.155 613.8C620.195 613.8 613.315 610.84 606.595 604.84L609.315 601.72C615.475 607.48 621.155 610.04 629.395 610.04C637.795 610.04 643.555 605.32 643.555 598.92V598.76C643.555 592.84 640.435 589.4 627.715 586.84C614.195 584.04 608.835 579.64 608.835 571.08V570.92C608.835 562.6 616.435 556.2 626.835 556.2C634.915 556.2 640.355 558.44 646.035 563L643.395 566.28C638.035 561.72 632.835 559.96 626.675 559.96C618.355 559.96 612.995 564.76 612.995 570.52V570.68C612.995 576.68 616.035 580.12 629.315 582.92C642.355 585.56 647.715 590.12 647.715 598.36V598.52C647.715 607.56 639.955 613.8 629.155 613.8ZM678.567 613.96C666.487 613.96 657.687 604.2 657.687 592.76V592.6C657.687 581.16 666.567 571.24 678.727 571.24C690.807 571.24 699.607 581 699.607 592.44V592.6C699.607 604.04 690.727 613.96 678.567 613.96ZM678.727 610.28C688.407 610.28 695.367 602.36 695.367 592.76V592.6C695.367 582.68 688.007 574.92 678.567 574.92C668.887 574.92 661.927 582.84 661.927 592.44V592.6C661.927 602.52 669.287 610.28 678.727 610.28ZM712.219 613V554.6H716.139V613H712.219ZM747.101 613.96C736.781 613.96 730.781 607 730.781 597.16V572.2H734.701V596.44C734.701 604.84 739.341 610.36 747.661 610.36C755.661 610.36 761.821 604.36 761.821 595.8V572.2H765.741V613H761.821V605.4C759.021 610.2 754.541 613.96 747.101 613.96ZM794.243 613.72C787.843 613.72 782.803 610.28 782.803 602.52V575.8H776.883V572.2H782.803V559.16H786.723V572.2H801.043V575.8H786.723V602.12C786.723 607.96 790.083 610.04 794.883 610.04C796.883 610.04 798.563 609.64 800.883 608.6V612.28C798.723 613.24 796.803 613.72 794.243 613.72ZM812.754 561.56V556.2H817.634V561.56H812.754ZM813.234 613V572.2H817.154V613H813.234ZM850.676 613.96C838.596 613.96 829.796 604.2 829.796 592.76V592.6C829.796 581.16 838.676 571.24 850.836 571.24C862.916 571.24 871.716 581 871.716 592.44V592.6C871.716 604.04 862.836 613.96 850.676 613.96ZM850.836 610.28C860.516 610.28 867.476 602.36 867.476 592.76V592.6C867.476 582.68 860.116 574.92 850.676 574.92C840.996 574.92 834.036 582.84 834.036 592.44V592.6C834.036 602.52 841.396 610.28 850.836 610.28ZM883.768 613V572.2H887.688V579.8C890.488 575 894.968 571.24 902.408 571.24C912.728 571.24 918.728 578.2 918.728 588.04V613H914.808V588.76C914.808 580.36 910.168 574.84 901.848 574.84C893.848 574.84 887.688 580.84 887.688 589.4V613H883.768Z" fill="black"/>
</svg>
